# xmcd
#
# Track frame offsets: 
#        183
#        22395
#        38798
#        56535
#        75935
#        99015
#        118805
#        141330
#        156578
#        176908
#
# Disc length: 2610 seconds
#
# Revision: 3
# Processed by: cddbd v1.5.2PL0 Copyright (c) Steve Scherf et al.
# Submitted via: ExactAudioCopy v1.1
#
DISCID=850a300a
DTITLE=Bruce Carroll - Sometimes Miracles Hide
DYEAR=1991
DGENRE=Country
TTITLE0=Highway Of Life
TTITLE1=If We Only Had The Heart
TTITLE2=Level Head
TTITLE3=I Know Where I Stand
TTITLE4=Sometimes Miracles Hide
TTITLE5=Pray For My Enemies
TTITLE6=I'm Still Here
TTITLE7=Breaking The Law Of Love
TTITLE8=Love Will Be Enough
TTITLE9=I'd Rather See A Sermon
EXTD=1991, Word, Inc.\nProduced By Brown Bannister and Tom Hemby\nfor 
EXTD=RBI Productions\nExecutive Producer: John Mays
EXTT0=
EXTT1=
EXTT2=
EXTT3=
EXTT4=
EXTT5=
EXTT6=
EXTT7=
EXTT8=
EXTT9=
PLAYORDER=
